<svg width="28" height="34" viewBox="0 0 28 34" fill="none" xmlns="http://www.w3.org/2000/svg">
<path d="M2.58333 27.625C3.41667 27.0972 4.04167 26.1528 4.45833 24.7917C4.90278 23.4306 5.125 21.75 5.125 19.75V17.1667H3.91667C3.05556 17.1667 2.41667 17.3889 2 17.8333C1.58333 18.2778 1.44444 18.8611 1.58333 19.5833H0.75C0.416667 18.7778 0.25 17.9444 0.25 17.0833C0.25 16.0556 0.472222 15.1944 0.916667 14.5C1.36111 13.8056 1.94444 13.2917 2.66667 12.9583C2.94444 12.8472 3.25 12.75 3.58333 12.6667C3.94444 12.5833 4.45833 12.5417 5.125 12.5417V11.9583C5.125 10.5417 5.33333 9.48611 5.75 8.79167C6.19444 8.06944 6.79167 7.45833 7.54167 6.95833C8.31944 6.45833 9.23611 5.81944 10.2917 5.04167C9.70833 5.20833 9.125 5.29166 8.54167 5.29166C7.70833 5.29166 6.90278 5.19444 6.125 5C5.375 4.77778 4.59722 4.66667 3.79167 4.66667C2.34722 4.66667 1.41667 5.22222 1 6.33333H2.23517e-08C0.0555556 6.22222 0.236111 5.86111 0.541667 5.25C0.875 4.61111 1.33333 3.91667 1.91667 3.16667C2.52778 2.41667 3.26389 1.76389 4.125 1.20833C4.98611 0.625 5.98611 0.333333 7.125 0.333333C8.09722 0.333333 9 0.5 9.83333 0.833333C10.6944 1.16667 11.625 1.33333 12.625 1.33333C13.4028 1.33333 14.0833 1.20833 14.6667 0.958333C15.25 0.708333 15.7639 0.388889 16.2083 3.57628e-07L16.125 1.08333C16.0139 1.22222 15.6806 1.59722 15.125 2.20833C14.5694 2.79167 13.8333 3.36111 12.9167 3.91667C12.8333 4 12.7361 4.08333 12.625 4.16667C12.5417 4.25 12.4583 4.33333 12.375 4.41667C11.6806 5.05555 11.1944 5.93055 10.9167 7.04167C10.6667 8.125 10.5417 9.25 10.5417 10.4167V18.6667C10.5139 20.2222 10.1667 21.6806 9.5 23.0417C8.83333 24.4028 7.98611 25.5139 6.95833 26.375C5.95833 27.2083 4.95833 27.625 3.95833 27.625H2.58333ZM1.70833 33.4583V32.7083C2.56944 31.0972 3.75 29.6806 5.25 28.4583C6.77778 27.2361 8.56944 26.3472 10.625 25.7917C11.2917 25.0417 11.7361 24.0417 11.9583 22.7917C12.2083 21.5417 12.3333 20.0139 12.3333 18.2083V11.9583C12.3333 9.29167 12.6806 7.16667 13.375 5.58333C14.0972 3.97222 15.1806 2.75 16.625 1.91667C18.0694 1.08333 19.8889 0.472222 22.0833 0.0833336L22.5417 3.57628e-07V0.916666L21.8333 1.125C20.25 1.59722 19.1667 2.48611 18.5833 3.79167C18 5.06944 17.7083 6.59722 17.7083 8.375V18C17.7083 19.0833 17.5694 20.0139 17.2917 20.7917C17.0139 21.5417 16.5417 22.2639 15.875 22.9583C15.2083 23.6528 14.2917 24.4444 13.125 25.3333C13.7361 25.2778 14.3333 25.25 14.9167 25.25C16.9444 25.25 18.8333 25.5139 20.5833 26.0417C22.3333 26.5417 23.9306 27.1667 25.375 27.9167L26.7083 26.9167L27.375 27.8333L21.2917 32.4167C18.5139 30.8056 15.5139 30 12.2917 30C10.2917 30 8.40278 30.3056 6.625 30.9167C4.84722 31.5 3.20833 32.3472 1.70833 33.4583Z" fill="url(#paint0_linear_15_9)"/>
<defs>
<linearGradient id="paint0_linear_15_9" x1="11.8652" y1="0.125" x2="12.1153" y2="45.6291" gradientUnits="userSpaceOnUse">
<stop stop-color="#06281D"/>
<stop offset="1" stop-color="#007FA2"/>
</linearGradient>
</defs>
</svg>
